<svg xmlns="http://www.w3.org/2000/svg" height="24" viewBox="0 0 24 24" width="24" focusable="false" aria-hidden="true" style="pointer-events: none; display: inherit; width: 100%; height: 100%;"><path d="M18.063 14.5a1 1 0 111.73 1A8.998 8.998 0 0113 19.942V22a1 1 0 11-2 0v-2.058A8.999 8.999 0 014.206 15.5l.866-.5.865-.5a7.002 7.002 0 0012.125 0ZM12 1a5 5 0 015 5v5a5 5 0 01-10 0V6a5 5 0 015-5ZM4.572 14.134a1 1 0 011.365.366l-1.731 1a1 1 0 01.366-1.366ZM12 3a3 3 0 00-3 3v5a3 3 0 106 0V6a3 3 0 00-3-3Z"></path></svg>